<svg width="22" height="22" fill="none" viewBox="-1 0 23 22" xmlns="http://www.w3.org/2000/svg"><path d="M15.23 9.308c0-1.63-.579-3.026-1.738-4.185-1.159-1.159-2.554-1.738-4.184-1.738-1.63 0-3.026.58-4.185 1.738-1.159 1.16-1.738 2.554-1.738 4.185 0 1.63.58 3.025 1.738 4.184 1.16 1.16 2.554 1.739 4.185 1.739 1.63 0 3.025-.58 4.184-1.739 1.16-1.159 1.739-2.554 1.739-4.184zm6.77 11c0 .458-.168.855-.502 1.19a1.626 1.626 0 01-1.19.502c-.476 0-.873-.168-1.19-.502l-4.535-4.522c-1.578 1.093-3.336 1.64-5.275 1.64a9.146 9.146 0 01-3.616-.734 9.305 9.305 0 01-2.975-1.984 9.306 9.306 0 01-1.983-2.974A9.146 9.146 0 010 9.308c0-1.26.245-2.466.734-3.616a9.306 9.306 0 011.983-2.975A9.306 9.306 0 015.692.734 9.146 9.146 0 019.308 0c1.26 0 2.465.245 3.616.734a9.306 9.306 0 012.974 1.983 9.305 9.305 0 011.984 2.975c.489 1.15.733 2.355.733 3.616 0 1.939-.546 3.697-1.639 5.275l4.535 4.535c.326.326.489.723.489 1.19z" fill="#212B49"/><path d="M15.23 9.308c0-1.63-.579-3.026-1.738-4.185-1.159-1.159-2.554-1.738-4.184-1.738-1.63 0-3.026.58-4.185 1.738-1.159 1.16-1.738 2.554-1.738 4.185 0 1.63.58 3.025 1.738 4.184 1.16 1.16 2.554 1.739 4.185 1.739 1.63 0 3.025-.58 4.184-1.739 1.16-1.159 1.739-2.554 1.739-4.184zm6.77 11c0 .458-.168.855-.502 1.19a1.626 1.626 0 01-1.19.502c-.476 0-.873-.168-1.19-.502l-4.535-4.522c-1.578 1.093-3.336 1.64-5.275 1.64a9.146 9.146 0 01-3.616-.734 9.305 9.305 0 01-2.975-1.984 9.306 9.306 0 01-1.983-2.974A9.146 9.146 0 010 9.308c0-1.26.245-2.466.734-3.616a9.306 9.306 0 011.983-2.975A9.306 9.306 0 015.692.734 9.146 9.146 0 019.308 0c1.26 0 2.465.245 3.616.734a9.306 9.306 0 012.974 1.983 9.305 9.305 0 011.984 2.975c.489 1.15.733 2.355.733 3.616 0 1.939-.546 3.697-1.639 5.275l4.535 4.535c.326.326.489.723.489 1.19z" fill="#121416"/></svg>
