<svg width="20" height="20" fill="currentColor" xmlns="http://www.w3.org/2000/svg">
  <path d="M2 10c0-1.846.635-3.543 1.688-4.897l11.209 11.209C13.4987 17.4053 11.775 17.9995 10 18c-4.411 0-8-3.589-8-8zm14.312 4.897L5.103 3.688C6.50127 2.59471 8.22505 2.00052 10 2c4.411 0 8 3.589 8 8-.0004 1.775-.5946 3.4988-1.688 4.897zM0 10c0 5.514 4.486 10 10 10s10-4.486 10-10S15.514 0 10 0 0 4.486 0 10z" fill="currentColor"/>
  <path d="M2 10c0-1.846.635-3.543 1.688-4.897l11.209 11.209C13.4987 17.4053 11.775 17.9995 10 18c-4.411 0-8-3.589-8-8zm14.312 4.897L5.103 3.688C6.50127 2.59471 8.22505 2.00052 10 2c4.411 0 8 3.589 8 8-.0004 1.775-.5946 3.4988-1.688 4.897zM0 10c0 5.514 4.486 10 10 10s10-4.486 10-10S15.514 0 10 0 0 4.486 0 10z" fill="currentColor"/>
</svg>
