<svg width="20" height="21" fill="currentColor" viewBox="0 0 20 21" xmlns="http://www.w3.org/2000/svg">
  <path d="M10 .666504C4.486.666504 0 5.1525 0 10.6665c0 5.514 4.486 10 10 10s10-4.486 10-10S15.514.666504 10 .666504zM10 18.6665c-4.41 0-8-3.59-8-8s3.59-8 8-8 8 3.59 8 8-3.59 8-8 8zm0-13c-.26522 0-.51957.10536-.70711.2929C9.10536 6.14693 9 6.40129 9 6.6665v4c0 .2652.10536.5196.29289.7071.18754.1875.44189.2929.70711.2929.2652 0 .5196-.1054.7071-.2929S11 10.9317 11 10.6665v-4c0-.26521-.1054-.51957-.2929-.7071-.1875-.18754-.4419-.2929-.7071-.2929zm0 8c-.26522 0-.51957.1054-.70711.2929-.18753.1875-.29289.4419-.29289.7071 0 .2652.10536.5196.29289.7071.18754.1875.44189.2929.70711.2929.2652 0 .5196-.1054.7071-.2929S11 14.9317 11 14.6665c0-.2652-.1054-.5196-.2929-.7071s-.4419-.2929-.7071-.2929z" fill="currentColor"/>
  <path d="M10 .666504C4.486.666504 0 5.1525 0 10.6665c0 5.514 4.486 10 10 10s10-4.486 10-10S15.514.666504 10 .666504zM10 18.6665c-4.41 0-8-3.59-8-8s3.59-8 8-8 8 3.59 8 8-3.59 8-8 8zm0-13c-.26522 0-.51957.10536-.70711.2929C9.10536 6.14693 9 6.40129 9 6.6665v4c0 .2652.10536.5196.29289.7071.18754.1875.44189.2929.70711.2929.2652 0 .5196-.1054.7071-.2929S11 10.9317 11 10.6665v-4c0-.26521-.1054-.51957-.2929-.7071-.1875-.18754-.4419-.2929-.7071-.2929zm0 8c-.26522 0-.51957.1054-.70711.2929-.18753.1875-.29289.4419-.29289.7071 0 .2652.10536.5196.29289.7071.18754.1875.44189.2929.70711.2929.2652 0 .5196-.1054.7071-.2929S11 14.9317 11 14.6665c0-.2652-.1054-.5196-.2929-.7071s-.4419-.2929-.7071-.2929z" fill="currentColor"/>
</svg>
