<svg width="20" height="21" fill="currentColor" xmlns="http://www.w3.org/2000/svg">
  <path d="M10 .333496C4.486.333496 0 4.8195 0 10.3335s4.486 10 10 10 10-4.486 10-10S15.514.333496 10 .333496zM10 18.3335c-4.41 0-8-3.59-8-8s3.59-8 8-8 8 3.59 8 8-3.59 8-8 8z" fill="currentColor"/>
  <path d="M10 .333496C4.486.333496 0 4.8195 0 10.3335s4.486 10 10 10 10-4.486 10-10S15.514.333496 10 .333496zM10 18.3335c-4.41 0-8-3.59-8-8s3.59-8 8-8 8 3.59 8 8-3.59 8-8 8z" fill="currentColor"/>
  <path d="M8.54288 14.5001l-3.25-3.25c-.19525-.1953-.19525-.5118 0-.7071l.70709-.70712c.19526-.19527.51186-.19527.70711 0l2.18936 2.18932 4.68936-4.68932c.1953-.19526.5119-.19526.7071 0L15 8.04299c.1953.19525.1953.51183 0 .70711l-5.75001 5.75c-.19527.1953-.51185.1953-.70711 0z" fill="currentColor"/>
  <path d="M8.54288 14.5001l-3.25-3.25c-.19525-.1953-.19525-.5118 0-.7071l.70709-.70712c.19526-.19527.51186-.19527.70711 0l2.18936 2.18932 4.68936-4.68932c.1953-.19526.5119-.19526.7071 0L15 8.04299c.1953.19525.1953.51183 0 .70711l-5.75001 5.75c-.19527.1953-.51185.1953-.70711 0z" fill="currentColor"/>
</svg>
